<?xml version="1.0" encoding="UTF-8"?>
<svg id="Camada_1" data-name="Camada 1" xmlns="http://www.w3.org/2000/svg" xmlns:xlink="http://www.w3.org/1999/xlink" viewBox="0 0 700 306.61">
  <defs>
    <style>
      .cls-1 {
        fill: url(#Gradiente_sem_nome_12);
      }

      .cls-2 {
        fill: #fff;
      }

      .cls-3 {
        fill: url(#Gradiente_sem_nome_12-2);
      }
    </style>
    <linearGradient id="Gradiente_sem_nome_12" data-name="Gradiente sem nome 12" x1="155" y1="225.59" x2="225.85" y2="225.59" gradientUnits="userSpaceOnUse">
      <stop offset="0" stop-color="#fff" stop-opacity="0"/>
      <stop offset=".16" stop-color="#fff" stop-opacity=".24"/>
      <stop offset=".32" stop-color="#fff" stop-opacity=".47"/>
      <stop offset=".49" stop-color="#fff" stop-opacity=".66"/>
      <stop offset=".64" stop-color="#fff" stop-opacity=".81"/>
      <stop offset=".78" stop-color="#fff" stop-opacity=".91"/>
      <stop offset=".9" stop-color="#fff" stop-opacity=".98"/>
      <stop offset="1" stop-color="#fff"/>
    </linearGradient>
    <linearGradient id="Gradiente_sem_nome_12-2" data-name="Gradiente sem nome 12" x1="396.42" y1="657.61" x2="467.27" y2="657.61" gradientTransform="translate(941.42 883.2) rotate(-180)" xlink:href="#Gradiente_sem_nome_12"/>
  </defs>
  <g>
    <g>
      <path class="cls-2" d="M237.68,238.75v-25.98h4.83v25.98h-4.83Z"/>
      <path class="cls-2" d="M249.52,238.75v-25.98h3.97l16.29,20.01h-1.97v-20.01h4.79v25.98h-3.97l-16.29-20.01h1.97v20.01h-4.79Z"/>
      <path class="cls-2" d="M287.64,239.12c-2.03,0-3.97-.29-5.83-.87-1.86-.58-3.33-1.33-4.42-2.25l1.67-3.75c1.04.82,2.33,1.5,3.86,2.04,1.53.54,3.1.82,4.71.82,1.36,0,2.46-.15,3.3-.45.84-.3,1.46-.7,1.86-1.21.4-.51.59-1.08.59-1.73,0-.79-.28-1.43-.85-1.91-.57-.48-1.31-.87-2.21-1.15-.9-.28-1.91-.55-3.01-.8-1.1-.25-2.2-.54-3.3-.87-1.1-.33-2.1-.77-3.01-1.3-.9-.53-1.64-1.24-2.21-2.13-.57-.89-.85-2.03-.85-3.41s.38-2.7,1.13-3.88c.75-1.18,1.91-2.12,3.45-2.82,1.55-.71,3.51-1.06,5.88-1.06,1.56,0,3.11.2,4.64.59,1.53.4,2.87.96,4.01,1.71l-1.52,3.75c-1.16-.69-2.36-1.21-3.6-1.54s-2.43-.5-3.56-.5c-1.34,0-2.42.16-3.25.48-.83.32-1.44.74-1.82,1.26-.38.52-.58,1.11-.58,1.78,0,.79.28,1.43.83,1.91.56.48,1.29.86,2.19,1.13.9.27,1.91.54,3.03.8,1.11.26,2.22.55,3.32.87,1.1.32,2.1.74,3.01,1.26.9.52,1.63,1.22,2.19,2.12.56.89.84,2.02.84,3.38s-.38,2.67-1.13,3.84c-.75,1.18-1.91,2.12-3.47,2.82-1.56.71-3.53,1.06-5.9,1.06Z"/>
      <path class="cls-2" d="M314.11,239.12c-3.56,0-6.35-1-8.37-3.01-2.02-2-3.03-4.9-3.03-8.69v-14.66h4.83v14.48c0,2.67.58,4.62,1.73,5.83,1.15,1.21,2.78,1.82,4.88,1.82s3.72-.61,4.86-1.82c1.14-1.21,1.71-3.15,1.71-5.83v-14.48h4.75v14.66c0,3.79-1.01,6.68-3.03,8.69-2.02,2-4.79,3.01-8.33,3.01Z"/>
      <path class="cls-2" d="M332.22,238.75v-25.98h10.65c3.46,0,6.18.82,8.15,2.45,1.97,1.63,2.95,3.9,2.95,6.79,0,1.91-.45,3.54-1.34,4.92s-2.16,2.43-3.8,3.16-3.62,1.09-5.92,1.09h-8.02l2.15-2.19v9.76h-4.83ZM337.05,229.51l-2.15-2.3h7.79c2.13,0,3.73-.46,4.81-1.37,1.08-.92,1.61-2.19,1.61-3.82s-.54-2.93-1.61-3.82c-1.08-.89-2.68-1.34-4.81-1.34h-7.79l2.15-2.38v15.03ZM349.22,238.75l-6.57-9.43h5.16l6.61,9.43h-5.2Z"/>
      <path class="cls-2" d="M355.68,238.75l11.69-25.98h4.75l11.73,25.98h-5.05l-10.06-23.42h1.93l-10.02,23.42h-4.97ZM361.06,232.74l1.3-3.79h14.03l1.3,3.79h-16.63Z"/>
      <path class="cls-2" d="M387.16,238.75v-25.98h3.97l16.29,20.01h-1.97v-20.01h4.79v25.98h-3.97l-16.29-20.01h1.97v20.01h-4.79Z"/>
      <path class="cls-2" d="M429.25,239.12c-1.98,0-3.82-.33-5.51-.98-1.7-.66-3.17-1.58-4.42-2.78-1.25-1.2-2.22-2.62-2.91-4.25-.69-1.63-1.04-3.42-1.04-5.35s.35-3.71,1.04-5.34c.69-1.63,1.67-3.05,2.93-4.25,1.26-1.2,2.73-2.13,4.42-2.78,1.68-.66,3.53-.98,5.53-.98,2.13,0,4.07.37,5.83,1.09,1.76.73,3.24,1.81,4.46,3.25l-3.12,2.93c-.94-1.01-1.99-1.77-3.16-2.28-1.16-.51-2.43-.76-3.79-.76s-2.6.22-3.73.67-2.1,1.08-2.93,1.89c-.83.82-1.47,1.78-1.93,2.9-.46,1.11-.69,2.34-.69,3.67s.23,2.56.69,3.67c.46,1.11,1.1,2.08,1.93,2.9.83.82,1.81,1.45,2.93,1.89,1.13.45,2.37.67,3.73.67s2.62-.25,3.79-.76c1.16-.51,2.21-1.28,3.16-2.32l3.12,2.97c-1.21,1.41-2.7,2.49-4.46,3.23-1.76.74-3.71,1.11-5.86,1.11Z"/>
      <path class="cls-2" d="M443.87,238.75v-25.98h18.97v4.05h-14.14v17.89h14.66v4.05h-19.49ZM448.33,227.54v-3.97h12.92v3.97h-12.92Z"/>
    </g>
    <rect class="cls-1" x="155" y="223.34" width="70.85" height="4.5"/>
    <rect class="cls-3" x="474.15" y="223.34" width="70.85" height="4.5"/>
  </g>
  <g>
    <path class="cls-2" d="M193.76,120.25v9.07l-8,.77v40.52c-.27,2.75-1.32,5.3-3.69,6.84l11.69-1.23v8.84l-27.99,3.46.22-9.08c2.68-.36,5.82-.77,7.04-3.57.24-.55.74-2.41.74-2.95v-31.91l-15.29,30.15c-.17.12-3.72.61-4.17.62-.22,0-.45.02-.61-.17l-15.15-25.06v30.06c0,.27-.32,1.53-.42,1.89-.54,1.98-1.58,3.49-3.27,4.65l11.69-1.38v9l-27.06,3.31v-9.07c3.7-.38,6.77-.95,7.62-5.07.49-12.89.14-25.87.18-38.79-.54-4.72-4.35-3.42-7.8-3.04v-9.07l19.39-2.23,18.36,29.91,17.07-34.14c.19-.18.67-.25.94-.29,5.18-.76,10.91-1.35,16.13-1.86.79-.08,1.59-.13,2.38-.16Z"/>
    <path class="cls-2" d="M580.51,91.03v8.3l-5.23.72-12.32,40.93-10.98,1.41-.61-.16-8.68-24.45-8.29,26.51-11.39,1.47-10.19-34.63c-1.57-3.78-3.26-3.65-7.04-2.88v-8.3l22.14-2.61v8.3c-1.41.25-2.99.22-4.38.46-.17.03-.3.06-.37.24l7.06,26.36,10.07-30.61,6.69-.92,10.15,28.14,6.3-24.99c.29-3.57-1.99-2.68-4.61-2.54v-8.3l21.68-2.46Z"/>
    <path class="cls-2" d="M441.96,90.41v9.07l-8.01,1.02v41.65c-.33,2.86-1.23,5.61-3.68,7.3,11.04.56,16.87,14.23,28.22,13.54,5.22-.32,10.49-3.68,13.99-7.38l5.59,7.46c-8.18,8.64-21.44,13.18-32.68,7.64-7.04-3.47-12.23-10.78-20.19-12.41-3.89-.8-7.36.07-11.23.39l.32-9.06c5.01-.39,7.36-1.96,7.68-7.16-.56-11.65.72-23.96,0-35.54-.37-5.88-3.41-4.62-8-4.22l.15-9.07,27.83-3.23Z"/>
    <path class="cls-2" d="M408.28,111.63v8.3l-5.15.77-19.12,50.54c-1.21,2.63-2.54,5.16-4.95,6.89l6.92-.69v8.07l-23.68,2.84v-8.15c1.8-.31,3.69-.32,5.42-.96,5.54-2.04,7.5-9.95,9.8-14.79-4.77-11.11-8.76-22.71-13.61-33.76-.53-1.2-1.43-3.54-2.46-4.31-1.57-1.17-3.4-.36-5.15-.31v-8.07l22.3-2.61v8l-.38.23-4.38.46v.37s9.07,27.46,9.07,27.46l8.14-27c.39-3.52-1.97-2.6-4.44-2.52v-8.15l21.68-2.61Z"/>
    <path class="cls-2" d="M268.19,135.93c3.58-5.45,8.51-9.43,15.17-10.28,9.84-1.26,14.76,3.88,15.29,13.43.29,5.2.33,12.52,0,17.7-.2,3.07-1.03,5.81-3.5,7.71-.13.1-.28,0-.19.35l8.92-1.08v8.3l-23.53,2.61v-8.15c3.13-.31,5.55-1.29,6.5-4.5,1.06-3.59.83-14.4.58-18.5-.71-11.89-12.35-7.98-16.76-1.07-.28,5.75.37,11.83,0,17.53-.14,2.18-.91,5.34-2.39,6.99l-1.31,1.07,7.38-.77v8.3l-22.91,2.61.15-8.3c1.78-.08,3.76-.37,5.22-1.47,2.06-1.57,2.51-4.31,2.63-6.75.29-5.55.35-13.26,0-18.77-.03-.49-.13-1.29-.23-1.77-.87-4.17-4.67-2.74-7.77-2.45l.15-8.3,16.61-2v7.54Z"/>
    <path class="cls-2" d="M487.32,144.54c-2.26,3.02-4.95,5.43-8.53,6.77-11.56,4.34-22.46-1.81-19.14-14.99,2.83-11.2,17.39-12.71,26.9-13.71.11-5.11.06-9.99-6.23-10.37-4.73-.28-9.52,1.93-12.99,4.99-.38.33-2.29,2.45-2.53,2.39l-5.48-7.29c-.15-.19-.17-.32-.07-.54.08-.18,1.93-1.96,2.23-2.24,4.57-4.04,10.68-6.49,16.71-7.28,10-1.32,18.86.97,19.59,12.5v25.61s5.37-.62,5.37-.62l-.22,8.31-15.62,1.84v-5.38ZM486.55,129.78c-6.03.75-16.36.46-15.69,9.16.4,5.21,6,5.32,9.77,3.61,2.69-1.22,4.46-3.61,5.92-6.08v-6.69Z"/>
    <path class="cls-2" d="M350.89,144.5l-30.65,3.72c-.2,3.21,1.22,7.85,3.79,9.92,3.05,2.45,7.83,2.42,11.16.58,2.67-1.48,4.44-4.06,5.97-6.62l8.83,3.99c.23.32-1.69,3.25-2.02,3.73-5,7.19-13.02,10.49-21.74,9.95-20.71-1.29-21.66-29.73-10.45-42.14,8.43-9.33,27.4-12.18,33.32,1.28,2.1,4.78,2.4,10.48,1.78,15.6ZM339.85,138.85c-.17-4.25-2.08-8.82-6.85-9.22-7.27-.62-11.49,4.75-12.53,11.38l19.38-2.15Z"/>
    <path class="cls-2" d="M226.18,132.59l1.8-.04c21.1.54,22.75,28.92,11.54,41.67-10.44,11.87-31.79,12.29-36.75-4.92-4.82-16.71,4.81-36.05,23.42-36.71ZM224.64,142.74c-10.92.76-13.22,15.11-10.38,23.51,2.96,8.75,13.67,7.86,17.92.78,4.24-7.07,4.25-25.12-7.54-24.3Z"/>
  </g>
</svg>